<svg viewBox="0 0 1024 1024" xmlns="http://www.w3.org/2000/svg"><path d="m0 0h1024v1024h-1024z" fill="#bce2ed"/><g fill="#4abde1"><path d="m837.5 194.72v266.06c0 15.93-18.46 24.74-30.85 14.72l-23.19-18.76-180.36 222.15c-8.2 10.11-23.03 11.64-33.13 3.44l-227.68-184.85c-10.1-8.21-11.64-23.04-3.44-33.14l179.98-221.68-41.07-33.23c-13.88-11.22-5.94-33.66 11.91-33.66h328.91c10.46 0 18.94 8.48 18.94 18.94z"/><path d="m220.62 753.38-.74-.67c-7.2-6.56-5.46-19.98 3.8-29.47 36.84-37.75 91.73-59.02 127.25-97.99 35.5-38.95 51.63-95.6 85.81-135.76 8.59-10.09 21.79-13.07 28.99-6.51l.74.68c6.82 6.21 5.67 18.67-2.58 28.13-34.98 40.08-56.53 93.21-92.23 132.36-36.14 39.65-86.42 65.32-123.28 104.05-8.65 9.09-20.96 11.38-27.78 5.17z"/><path d="m262.22 792.04-.74-.67c-7.2-6.56-5.46-19.98 3.8-29.47 36.84-37.75 91.73-59.02 127.25-97.99 35.5-38.95 51.63-95.6 85.81-135.76 8.59-10.09 21.79-13.07 28.99-6.51l.74.68c6.82 6.21 5.67 18.67-2.58 28.13-34.98 40.08-56.53 93.21-92.23 132.36-36.14 39.65-86.42 65.32-123.28 104.05-8.65 9.09-20.96 11.38-27.78 5.17z"/><path d="m305.98 839.41-.74-.67c-7.2-6.56-5.46-19.98 3.8-29.47 36.84-37.75 91.73-59.02 127.25-97.99 35.5-38.95 51.63-95.6 85.81-135.76 8.59-10.09 21.79-13.07 28.99-6.51l.74.68c6.82 6.21 5.67 18.67-2.58 28.13-34.98 40.08-56.53 93.21-92.23 132.36-36.14 39.65-86.42 65.32-123.28 104.05-8.65 9.09-20.96 11.38-27.78 5.17z"/><path d="m363.62 876.08-.74-.67c-7.2-6.56-5.46-19.98 3.8-29.47 36.84-37.75 91.73-59.02 127.25-97.99 35.5-38.95 51.63-95.6 85.81-135.76 8.59-10.09 21.79-13.07 28.99-6.51l.74.68c6.82 6.21 5.67 18.67-2.58 28.13-34.98 40.08-56.53 93.21-92.23 132.36-36.14 39.65-86.42 65.32-123.28 104.05-8.65 9.09-20.96 11.38-27.78 5.17z"/><path d="m178.23 717.62-.74-.67c-7.2-6.56-5.46-19.98 3.8-29.47 36.84-37.75 91.73-59.02 127.25-97.99 35.5-38.95 51.63-95.6 85.81-135.76 8.59-10.09 21.79-13.07 28.99-6.51l.74.68c6.82 6.21 5.67 18.67-2.58 28.13-34.98 40.08-56.53 93.21-92.23 132.36-36.14 39.65-86.42 65.32-123.28 104.05-8.65 9.09-20.96 11.38-27.78 5.17z"/></g><path d="m203.45 753.38-.74-.67c-7.2-6.56-5.46-19.98 3.8-29.47 36.84-37.75 91.73-59.02 127.25-97.99 35.5-38.95 51.63-95.6 85.81-135.76 8.59-10.09 21.79-13.07 28.99-6.51l.74.68c6.82 6.21 5.67 18.67-2.58 28.13-34.98 40.08-56.53 93.21-92.23 132.36-36.14 39.65-86.42 65.32-123.28 104.05-8.65 9.09-20.96 11.38-27.78 5.17z" fill="#cecece"/><path d="m245.05 792.04-.74-.67c-7.2-6.56-5.46-19.98 3.8-29.47 36.84-37.75 91.73-59.02 127.25-97.99 35.5-38.95 51.63-95.6 85.81-135.76 8.59-10.09 21.79-13.07 28.99-6.51l.74.68c6.82 6.21 5.67 18.67-2.58 28.13-34.98 40.08-56.53 93.21-92.23 132.36-36.14 39.65-86.42 65.32-123.28 104.05-8.65 9.09-20.96 11.38-27.78 5.17z" fill="#cecece"/><path d="m288.81 839.41-.74-.67c-7.2-6.56-5.46-19.98 3.8-29.47 36.84-37.75 91.73-59.02 127.25-97.99 35.5-38.95 51.63-95.6 85.81-135.76 8.59-10.09 21.79-13.07 28.99-6.51l.74.68c6.82 6.21 5.67 18.67-2.58 28.13-34.98 40.08-56.53 93.21-92.23 132.36-36.14 39.65-86.42 65.32-123.28 104.05-8.65 9.09-20.96 11.38-27.78 5.17z" fill="#cecece"/><path d="m346.46 876.08-.74-.67c-7.2-6.56-5.46-19.98 3.8-29.47 36.84-37.75 91.73-59.02 127.25-97.99 35.5-38.95 51.63-95.6 85.81-135.76 8.59-10.09 21.79-13.07 28.99-6.51l.74.68c6.82 6.21 5.67 18.67-2.58 28.13-34.98 40.08-56.53 93.21-92.23 132.36-36.14 39.65-86.42 65.32-123.28 104.05-8.65 9.09-20.96 11.38-27.78 5.17z" fill="#cecece"/><path d="m161.07 717.62-.74-.67c-7.2-6.56-5.46-19.98 3.8-29.47 36.84-37.75 91.73-59.02 127.25-97.99 35.5-38.95 51.63-95.6 85.81-135.76 8.59-10.09 21.79-13.07 28.99-6.51l.74.68c6.82 6.21 5.67 18.67-2.58 28.13-34.98 40.08-56.53 93.21-92.23 132.36-36.14 39.65-86.42 65.32-123.28 104.05-8.65 9.09-20.96 11.38-27.78 5.17z" fill="#cecece"/><path d="m827.5 190.48v266.06c0 15.93-18.46 24.74-30.85 14.72l-23.19-18.76-180.36 222.15c-8.2 10.11-23.03 11.64-33.13 3.44l-227.68-184.85c-10.1-8.21-11.64-23.04-3.44-33.14l179.98-221.68-41.07-33.23c-13.88-11.22-5.94-33.66 11.91-33.66h328.91c10.46 0 18.94 8.48 18.94 18.94z" fill="#e5e3e2"/><circle cx="599.62" cy="614.39" fill="#fff" r="78.21"/><circle cx="562.2" cy="595.81" fill="#323333" r="34.76"/><circle cx="387.69" cy="446.03" fill="#fff" r="78.21"/><circle cx="350.27" cy="427.45" fill="#323333" r="34.76"/></svg>